<?xml version="1.0" encoding="utf-8"?>
<!-- Generator: Adobe Illustrator 27.6.1, SVG Export Plug-In . SVG Version: 6.00 Build 0)  -->
<svg version="1.1" id="Calque_1" xmlns="http://www.w3.org/2000/svg" xmlns:xlink="http://www.w3.org/1999/xlink" x="0px" y="0px"
	 viewBox="0 0 500 500" style="enable-background:new 0 0 500 500;" xml:space="preserve">
<style type="text/css">
	.st0{fill:#FFFFFF;}
</style>
<g transform="translate(0.000000,500.000000) scale(0.100000,-0.100000)">
	<path class="st0" d="M2411.8,4968.5c-37.4-23.6-100.3-125.9-204.6-330.4c-179-354.1-358-631.4-706.1-1091.7
		c-304.9-405.2-511.4-710.1-598-883.2c-208.5-411.1-269.5-922.5-159.3-1349.3c118-464.2,458.3-877.3,912.7-1109.4
		C1943.6,59,2187.5,0,2504.2,0c332.4,0,556.6,53.1,845.8,196.7c446.5,224.2,759.2,598,908.7,1081.8
		c47.2,157.4,53.1,202.6,51.1,487.8c0,259.6-5.9,342.2-41.3,466.2c-110.1,401.3-263.6,662.9-812.3,1382.8
		c-157.4,204.6-487.8,690.4-511.4,747.4c-3.9,11.8-72.8,145.6-151.5,300.9c-110.1,212.4-157.4,287.2-200.6,308.8
		C2520,5009.8,2478.6,5009.8,2411.8,4968.5z M2533.7,4439.4c0-53.1,167.2-371.8,295-560.6c68.8-102.3,241.9-340.3,383.6-529.1
		c411.1-542.9,550.7-773,647.1-1058.2c241.9-708.1-57-1461.4-706.1-1782.1c-212.4-104.2-356-133.8-643.2-131.8
		c-454.4,0-753.3,127.9-1062.2,450.4c-249.8,261.6-373.7,578.3-371.8,955.9c0,283.2,39.3,454.4,161.3,712
		c108.2,228.2,220.3,397.3,660.9,985.4c302.9,405.2,456.3,649.1,540.9,853.7C2496.3,4474.8,2533.7,4516.1,2533.7,4439.4z"/>
</g>
</svg>
